<mxfile host="app.diagrams.net" modified="2021-12-07T09:55:10.577Z" agent="5.0 (Windows NT 10.0; Win64; x64) AppleWebKit/537.36 (KHTML, like Gecko) Chrome/95.0.4638.69 Safari/537.36" etag="T3UwIQRqWqDdV2w7R_ok" version="15.9.1" type="github">
  <diagram id="WAlhVrl_Yb6VkF_u1bJs" name="第 1 页">
    <mxGraphModel dx="2652" dy="781" grid="1" gridSize="10" guides="1" tooltips="1" connect="1" arrows="1" fold="1" page="1" pageScale="1" pageWidth="1169" pageHeight="827" math="0" shadow="0">
      <root>
        <mxCell id="0" />
        <mxCell id="1" parent="0" />
        <mxCell id="hx7UnCRA5eKLAJgafwng-28" value="" style="rounded=0;whiteSpace=wrap;html=1;fontSize=24;" vertex="1" parent="1">
          <mxGeometry x="90" y="150" width="380" height="460" as="geometry" />
        </mxCell>
        <mxCell id="hx7UnCRA5eKLAJgafwng-1" value="`" style="rounded=0;whiteSpace=wrap;html=1;" vertex="1" parent="1">
          <mxGeometry x="540" y="150" width="600" height="460" as="geometry" />
        </mxCell>
        <mxCell id="BerOtadObNwDrbP9cR0y-13" value="" style="shape=table;startSize=0;container=1;collapsible=0;childLayout=tableLayout;fontSize=18;" parent="1" vertex="1">
          <mxGeometry x="760" y="260.25" width="330" height="30" as="geometry" />
        </mxCell>
        <mxCell id="BerOtadObNwDrbP9cR0y-14" value="" style="shape=partialRectangle;collapsible=0;dropTarget=0;pointerEvents=0;fillColor=none;top=0;left=0;bottom=0;right=0;points=[[0,0.5],[1,0.5]];portConstraint=eastwest;fontSize=18;" parent="BerOtadObNwDrbP9cR0y-13" vertex="1">
          <mxGeometry width="330" height="30" as="geometry" />
        </mxCell>
        <mxCell id="BerOtadObNwDrbP9cR0y-15" value="" style="shape=partialRectangle;html=1;whiteSpace=wrap;connectable=0;overflow=hidden;fillColor=none;top=0;left=0;bottom=0;right=0;pointerEvents=1;fontSize=18;" parent="BerOtadObNwDrbP9cR0y-14" vertex="1">
          <mxGeometry width="90" height="30" as="geometry">
            <mxRectangle width="90" height="30" as="alternateBounds" />
          </mxGeometry>
        </mxCell>
        <mxCell id="BerOtadObNwDrbP9cR0y-16" value="Wiki_OutLine在线云笔记" style="shape=partialRectangle;html=1;whiteSpace=wrap;connectable=0;overflow=hidden;fillColor=none;top=0;left=0;bottom=0;right=0;pointerEvents=1;fontSize=18;" parent="BerOtadObNwDrbP9cR0y-14" vertex="1">
          <mxGeometry x="90" width="240" height="30" as="geometry">
            <mxRectangle width="240" height="30" as="alternateBounds" />
          </mxGeometry>
        </mxCell>
        <mxCell id="BerOtadObNwDrbP9cR0y-17" value="" style="shape=table;startSize=0;container=1;collapsible=0;childLayout=tableLayout;fontSize=18;" parent="1" vertex="1">
          <mxGeometry x="760" y="210.25" width="330" height="30" as="geometry" />
        </mxCell>
        <mxCell id="BerOtadObNwDrbP9cR0y-18" value="" style="shape=partialRectangle;collapsible=0;dropTarget=0;pointerEvents=0;fillColor=none;top=0;left=0;bottom=0;right=0;points=[[0,0.5],[1,0.5]];portConstraint=eastwest;fontSize=18;" parent="BerOtadObNwDrbP9cR0y-17" vertex="1">
          <mxGeometry width="330" height="30" as="geometry" />
        </mxCell>
        <mxCell id="BerOtadObNwDrbP9cR0y-19" value="24680" style="shape=partialRectangle;html=1;whiteSpace=wrap;connectable=0;overflow=hidden;fillColor=none;top=0;left=0;bottom=0;right=0;pointerEvents=1;fontSize=18;" parent="BerOtadObNwDrbP9cR0y-18" vertex="1">
          <mxGeometry width="90" height="30" as="geometry">
            <mxRectangle width="90" height="30" as="alternateBounds" />
          </mxGeometry>
        </mxCell>
        <mxCell id="BerOtadObNwDrbP9cR0y-20" value="MineCraft私服" style="shape=partialRectangle;html=1;whiteSpace=wrap;connectable=0;overflow=hidden;fillColor=none;top=0;left=0;bottom=0;right=0;pointerEvents=1;fontSize=18;" parent="BerOtadObNwDrbP9cR0y-18" vertex="1">
          <mxGeometry x="90" width="240" height="30" as="geometry">
            <mxRectangle width="240" height="30" as="alternateBounds" />
          </mxGeometry>
        </mxCell>
        <mxCell id="BerOtadObNwDrbP9cR0y-21" value="" style="shape=table;startSize=0;container=1;collapsible=0;childLayout=tableLayout;fontSize=18;" parent="1" vertex="1">
          <mxGeometry x="760" y="310.25" width="330" height="30" as="geometry" />
        </mxCell>
        <mxCell id="BerOtadObNwDrbP9cR0y-22" value="" style="shape=partialRectangle;collapsible=0;dropTarget=0;pointerEvents=0;fillColor=none;top=0;left=0;bottom=0;right=0;points=[[0,0.5],[1,0.5]];portConstraint=eastwest;fontSize=18;" parent="BerOtadObNwDrbP9cR0y-21" vertex="1">
          <mxGeometry width="330" height="30" as="geometry" />
        </mxCell>
        <mxCell id="BerOtadObNwDrbP9cR0y-23" value="8080" style="shape=partialRectangle;html=1;whiteSpace=wrap;connectable=0;overflow=hidden;fillColor=none;top=0;left=0;bottom=0;right=0;pointerEvents=1;fontSize=18;" parent="BerOtadObNwDrbP9cR0y-22" vertex="1">
          <mxGeometry width="90" height="30" as="geometry">
            <mxRectangle width="90" height="30" as="alternateBounds" />
          </mxGeometry>
        </mxCell>
        <mxCell id="BerOtadObNwDrbP9cR0y-24" value="Drawio在线绘图工具" style="shape=partialRectangle;html=1;whiteSpace=wrap;connectable=0;overflow=hidden;fillColor=none;top=0;left=0;bottom=0;right=0;pointerEvents=1;fontSize=18;" parent="BerOtadObNwDrbP9cR0y-22" vertex="1">
          <mxGeometry x="90" width="240" height="30" as="geometry">
            <mxRectangle width="240" height="30" as="alternateBounds" />
          </mxGeometry>
        </mxCell>
        <mxCell id="BerOtadObNwDrbP9cR0y-33" value="" style="shape=table;startSize=0;container=1;collapsible=0;childLayout=tableLayout;fontSize=18;" parent="1" vertex="1">
          <mxGeometry x="760" y="410.25" width="330" height="30" as="geometry" />
        </mxCell>
        <mxCell id="BerOtadObNwDrbP9cR0y-34" value="" style="shape=partialRectangle;collapsible=0;dropTarget=0;pointerEvents=0;fillColor=none;top=0;left=0;bottom=0;right=0;points=[[0,0.5],[1,0.5]];portConstraint=eastwest;fontSize=18;" parent="BerOtadObNwDrbP9cR0y-33" vertex="1">
          <mxGeometry width="330" height="30" as="geometry" />
        </mxCell>
        <mxCell id="BerOtadObNwDrbP9cR0y-35" value="" style="shape=partialRectangle;html=1;whiteSpace=wrap;connectable=0;overflow=hidden;fillColor=none;top=0;left=0;bottom=0;right=0;pointerEvents=1;fontSize=18;" parent="BerOtadObNwDrbP9cR0y-34" vertex="1">
          <mxGeometry width="90" height="30" as="geometry">
            <mxRectangle width="90" height="30" as="alternateBounds" />
          </mxGeometry>
        </mxCell>
        <mxCell id="BerOtadObNwDrbP9cR0y-36" value="NextCloud私有云" style="shape=partialRectangle;html=1;whiteSpace=wrap;connectable=0;overflow=hidden;fillColor=none;top=0;left=0;bottom=0;right=0;pointerEvents=1;fontSize=18;" parent="BerOtadObNwDrbP9cR0y-34" vertex="1">
          <mxGeometry x="90" width="240" height="30" as="geometry">
            <mxRectangle width="240" height="30" as="alternateBounds" />
          </mxGeometry>
        </mxCell>
        <mxCell id="BerOtadObNwDrbP9cR0y-37" value="" style="shape=table;startSize=0;container=1;collapsible=0;childLayout=tableLayout;fontSize=18;" parent="1" vertex="1">
          <mxGeometry x="760" y="360.25" width="330" height="30" as="geometry" />
        </mxCell>
        <mxCell id="BerOtadObNwDrbP9cR0y-38" value="" style="shape=partialRectangle;collapsible=0;dropTarget=0;pointerEvents=0;fillColor=none;top=0;left=0;bottom=0;right=0;points=[[0,0.5],[1,0.5]];portConstraint=eastwest;fontSize=18;" parent="BerOtadObNwDrbP9cR0y-37" vertex="1">
          <mxGeometry width="330" height="30" as="geometry" />
        </mxCell>
        <mxCell id="BerOtadObNwDrbP9cR0y-39" value="" style="shape=partialRectangle;html=1;whiteSpace=wrap;connectable=0;overflow=hidden;fillColor=none;top=0;left=0;bottom=0;right=0;pointerEvents=1;fontSize=18;" parent="BerOtadObNwDrbP9cR0y-38" vertex="1">
          <mxGeometry width="90" height="30" as="geometry">
            <mxRectangle width="90" height="30" as="alternateBounds" />
          </mxGeometry>
        </mxCell>
        <mxCell id="BerOtadObNwDrbP9cR0y-40" value="Lsky Pro图床" style="shape=partialRectangle;html=1;whiteSpace=wrap;connectable=0;overflow=hidden;fillColor=none;top=0;left=0;bottom=0;right=0;pointerEvents=1;fontSize=18;" parent="BerOtadObNwDrbP9cR0y-38" vertex="1">
          <mxGeometry x="90" width="240" height="30" as="geometry">
            <mxRectangle width="240" height="30" as="alternateBounds" />
          </mxGeometry>
        </mxCell>
        <mxCell id="BerOtadObNwDrbP9cR0y-41" value="" style="shape=table;startSize=0;container=1;collapsible=0;childLayout=tableLayout;fontSize=18;" parent="1" vertex="1">
          <mxGeometry x="760" y="460.25" width="330" height="30" as="geometry" />
        </mxCell>
        <mxCell id="BerOtadObNwDrbP9cR0y-42" value="" style="shape=partialRectangle;collapsible=0;dropTarget=0;pointerEvents=0;fillColor=none;top=0;left=0;bottom=0;right=0;points=[[0,0.5],[1,0.5]];portConstraint=eastwest;fontSize=18;" parent="BerOtadObNwDrbP9cR0y-41" vertex="1">
          <mxGeometry width="330" height="30" as="geometry" />
        </mxCell>
        <mxCell id="BerOtadObNwDrbP9cR0y-43" value="" style="shape=partialRectangle;html=1;whiteSpace=wrap;connectable=0;overflow=hidden;fillColor=none;top=0;left=0;bottom=0;right=0;pointerEvents=1;fontSize=18;" parent="BerOtadObNwDrbP9cR0y-42" vertex="1">
          <mxGeometry width="90" height="30" as="geometry">
            <mxRectangle width="90" height="30" as="alternateBounds" />
          </mxGeometry>
        </mxCell>
        <mxCell id="BerOtadObNwDrbP9cR0y-44" value="NextCloud私有云" style="shape=partialRectangle;html=1;whiteSpace=wrap;connectable=0;overflow=hidden;fillColor=none;top=0;left=0;bottom=0;right=0;pointerEvents=1;fontSize=18;" parent="BerOtadObNwDrbP9cR0y-42" vertex="1">
          <mxGeometry x="90" width="240" height="30" as="geometry">
            <mxRectangle width="240" height="30" as="alternateBounds" />
          </mxGeometry>
        </mxCell>
        <mxCell id="BerOtadObNwDrbP9cR0y-45" value="" style="shape=table;startSize=0;container=1;collapsible=0;childLayout=tableLayout;fontSize=18;" parent="1" vertex="1">
          <mxGeometry x="760" y="510.25" width="330" height="30" as="geometry" />
        </mxCell>
        <mxCell id="BerOtadObNwDrbP9cR0y-46" value="" style="shape=partialRectangle;collapsible=0;dropTarget=0;pointerEvents=0;fillColor=none;top=0;left=0;bottom=0;right=0;points=[[0,0.5],[1,0.5]];portConstraint=eastwest;fontSize=18;" parent="BerOtadObNwDrbP9cR0y-45" vertex="1">
          <mxGeometry width="330" height="30" as="geometry" />
        </mxCell>
        <mxCell id="BerOtadObNwDrbP9cR0y-47" value="" style="shape=partialRectangle;html=1;whiteSpace=wrap;connectable=0;overflow=hidden;fillColor=none;top=0;left=0;bottom=0;right=0;pointerEvents=1;fontSize=18;" parent="BerOtadObNwDrbP9cR0y-46" vertex="1">
          <mxGeometry width="90" height="30" as="geometry">
            <mxRectangle width="90" height="30" as="alternateBounds" />
          </mxGeometry>
        </mxCell>
        <mxCell id="BerOtadObNwDrbP9cR0y-48" value="VS Code Web IDE" style="shape=partialRectangle;html=1;whiteSpace=wrap;connectable=0;overflow=hidden;fillColor=none;top=0;left=0;bottom=0;right=0;pointerEvents=1;fontSize=18;" parent="BerOtadObNwDrbP9cR0y-46" vertex="1">
          <mxGeometry x="90" width="240" height="30" as="geometry">
            <mxRectangle width="240" height="30" as="alternateBounds" />
          </mxGeometry>
        </mxCell>
        <mxCell id="BerOtadObNwDrbP9cR0y-49" value="" style="shape=table;startSize=0;container=1;collapsible=0;childLayout=tableLayout;fontSize=18;" parent="1" vertex="1">
          <mxGeometry x="760" y="560.25" width="330" height="30" as="geometry" />
        </mxCell>
        <mxCell id="BerOtadObNwDrbP9cR0y-50" value="" style="shape=partialRectangle;collapsible=0;dropTarget=0;pointerEvents=0;fillColor=none;top=0;left=0;bottom=0;right=0;points=[[0,0.5],[1,0.5]];portConstraint=eastwest;fontSize=18;" parent="BerOtadObNwDrbP9cR0y-49" vertex="1">
          <mxGeometry width="330" height="30" as="geometry" />
        </mxCell>
        <mxCell id="BerOtadObNwDrbP9cR0y-51" value="" style="shape=partialRectangle;html=1;whiteSpace=wrap;connectable=0;overflow=hidden;fillColor=none;top=0;left=0;bottom=0;right=0;pointerEvents=1;fontSize=18;" parent="BerOtadObNwDrbP9cR0y-50" vertex="1">
          <mxGeometry width="90" height="30" as="geometry">
            <mxRectangle width="90" height="30" as="alternateBounds" />
          </mxGeometry>
        </mxCell>
        <mxCell id="BerOtadObNwDrbP9cR0y-52" value="BT下载Transmission" style="shape=partialRectangle;html=1;whiteSpace=wrap;connectable=0;overflow=hidden;fillColor=none;top=0;left=0;bottom=0;right=0;pointerEvents=1;fontSize=18;" parent="BerOtadObNwDrbP9cR0y-50" vertex="1">
          <mxGeometry x="90" width="240" height="30" as="geometry">
            <mxRectangle width="240" height="30" as="alternateBounds" />
          </mxGeometry>
        </mxCell>
        <mxCell id="hx7UnCRA5eKLAJgafwng-12" style="edgeStyle=orthogonalEdgeStyle;rounded=0;orthogonalLoop=1;jettySize=auto;html=1;exitX=1;exitY=0.5;exitDx=0;exitDy=0;entryX=0;entryY=0.5;entryDx=0;entryDy=0;fontSize=24;" edge="1" parent="1" source="hx7UnCRA5eKLAJgafwng-2" target="BerOtadObNwDrbP9cR0y-18">
          <mxGeometry relative="1" as="geometry" />
        </mxCell>
        <mxCell id="hx7UnCRA5eKLAJgafwng-13" style="edgeStyle=orthogonalEdgeStyle;rounded=0;orthogonalLoop=1;jettySize=auto;html=1;exitX=1;exitY=0.5;exitDx=0;exitDy=0;entryX=0;entryY=0.5;entryDx=0;entryDy=0;fontSize=24;" edge="1" parent="1" source="hx7UnCRA5eKLAJgafwng-2" target="BerOtadObNwDrbP9cR0y-14">
          <mxGeometry relative="1" as="geometry" />
        </mxCell>
        <mxCell id="hx7UnCRA5eKLAJgafwng-14" style="edgeStyle=orthogonalEdgeStyle;rounded=0;orthogonalLoop=1;jettySize=auto;html=1;exitX=1;exitY=0.5;exitDx=0;exitDy=0;entryX=0;entryY=0.5;entryDx=0;entryDy=0;fontSize=24;" edge="1" parent="1" source="hx7UnCRA5eKLAJgafwng-2" target="BerOtadObNwDrbP9cR0y-22">
          <mxGeometry relative="1" as="geometry" />
        </mxCell>
        <mxCell id="hx7UnCRA5eKLAJgafwng-15" style="edgeStyle=orthogonalEdgeStyle;rounded=0;orthogonalLoop=1;jettySize=auto;html=1;exitX=1;exitY=0.5;exitDx=0;exitDy=0;entryX=0;entryY=0.5;entryDx=0;entryDy=0;fontSize=24;" edge="1" parent="1" source="hx7UnCRA5eKLAJgafwng-2" target="BerOtadObNwDrbP9cR0y-38">
          <mxGeometry relative="1" as="geometry" />
        </mxCell>
        <mxCell id="hx7UnCRA5eKLAJgafwng-16" style="edgeStyle=orthogonalEdgeStyle;rounded=0;orthogonalLoop=1;jettySize=auto;html=1;exitX=1;exitY=0.5;exitDx=0;exitDy=0;entryX=0;entryY=0.5;entryDx=0;entryDy=0;fontSize=24;" edge="1" parent="1" source="hx7UnCRA5eKLAJgafwng-2" target="BerOtadObNwDrbP9cR0y-34">
          <mxGeometry relative="1" as="geometry" />
        </mxCell>
        <mxCell id="hx7UnCRA5eKLAJgafwng-17" style="edgeStyle=orthogonalEdgeStyle;rounded=0;orthogonalLoop=1;jettySize=auto;html=1;exitX=1;exitY=0.5;exitDx=0;exitDy=0;entryX=0;entryY=0.5;entryDx=0;entryDy=0;fontSize=24;" edge="1" parent="1" source="hx7UnCRA5eKLAJgafwng-2" target="BerOtadObNwDrbP9cR0y-42">
          <mxGeometry relative="1" as="geometry" />
        </mxCell>
        <mxCell id="hx7UnCRA5eKLAJgafwng-18" style="edgeStyle=orthogonalEdgeStyle;rounded=0;orthogonalLoop=1;jettySize=auto;html=1;exitX=1;exitY=0.5;exitDx=0;exitDy=0;entryX=0;entryY=0.5;entryDx=0;entryDy=0;fontSize=24;" edge="1" parent="1" source="hx7UnCRA5eKLAJgafwng-2" target="BerOtadObNwDrbP9cR0y-46">
          <mxGeometry relative="1" as="geometry" />
        </mxCell>
        <mxCell id="hx7UnCRA5eKLAJgafwng-19" style="edgeStyle=orthogonalEdgeStyle;rounded=0;orthogonalLoop=1;jettySize=auto;html=1;exitX=1;exitY=0.5;exitDx=0;exitDy=0;entryX=0;entryY=0.5;entryDx=0;entryDy=0;fontSize=24;" edge="1" parent="1" source="hx7UnCRA5eKLAJgafwng-2" target="BerOtadObNwDrbP9cR0y-50">
          <mxGeometry relative="1" as="geometry" />
        </mxCell>
        <mxCell id="hx7UnCRA5eKLAJgafwng-2" value="&lt;font style=&quot;font-size: 24px&quot;&gt;K8S&lt;/font&gt;" style="rounded=0;whiteSpace=wrap;html=1;" vertex="1" parent="1">
          <mxGeometry x="585" y="361.5" width="100" height="77.5" as="geometry" />
        </mxCell>
        <mxCell id="hx7UnCRA5eKLAJgafwng-43" style="edgeStyle=orthogonalEdgeStyle;rounded=0;orthogonalLoop=1;jettySize=auto;html=1;exitX=1;exitY=0.5;exitDx=0;exitDy=0;entryX=0;entryY=0.5;entryDx=0;entryDy=0;fontSize=24;" edge="1" parent="1" source="hx7UnCRA5eKLAJgafwng-22" target="hx7UnCRA5eKLAJgafwng-40">
          <mxGeometry relative="1" as="geometry" />
        </mxCell>
        <mxCell id="hx7UnCRA5eKLAJgafwng-22" value="web" style="rounded=0;whiteSpace=wrap;html=1;fontSize=24;" vertex="1" parent="1">
          <mxGeometry x="-110" y="418.75" width="90" height="70" as="geometry" />
        </mxCell>
        <mxCell id="hx7UnCRA5eKLAJgafwng-26" value="&lt;font style=&quot;font-size: 24px&quot;&gt;Web应用服务器&lt;/font&gt;" style="rounded=0;whiteSpace=wrap;html=1;" vertex="1" parent="1">
          <mxGeometry x="740" y="100" width="200" height="30" as="geometry" />
        </mxCell>
        <mxCell id="hx7UnCRA5eKLAJgafwng-27" value="&lt;font style=&quot;font-size: 24px&quot;&gt;反向代理服务器&lt;/font&gt;" style="rounded=0;whiteSpace=wrap;html=1;" vertex="1" parent="1">
          <mxGeometry x="170" y="100" width="200" height="30" as="geometry" />
        </mxCell>
        <mxCell id="hx7UnCRA5eKLAJgafwng-41" style="edgeStyle=orthogonalEdgeStyle;rounded=0;orthogonalLoop=1;jettySize=auto;html=1;exitX=1;exitY=0.5;exitDx=0;exitDy=0;entryX=0;entryY=0.5;entryDx=0;entryDy=0;fontSize=24;" edge="1" parent="1" source="hx7UnCRA5eKLAJgafwng-38" target="hx7UnCRA5eKLAJgafwng-40">
          <mxGeometry relative="1" as="geometry" />
        </mxCell>
        <mxCell id="hx7UnCRA5eKLAJgafwng-38" value="web" style="rounded=0;whiteSpace=wrap;html=1;fontSize=24;" vertex="1" parent="1">
          <mxGeometry x="-110" y="326.5" width="90" height="70" as="geometry" />
        </mxCell>
        <mxCell id="hx7UnCRA5eKLAJgafwng-47" style="edgeStyle=orthogonalEdgeStyle;rounded=0;orthogonalLoop=1;jettySize=auto;html=1;exitX=1;exitY=0.5;exitDx=0;exitDy=0;entryX=0;entryY=0.5;entryDx=0;entryDy=0;fontSize=18;" edge="1" parent="1" source="hx7UnCRA5eKLAJgafwng-40" target="hx7UnCRA5eKLAJgafwng-39">
          <mxGeometry relative="1" as="geometry" />
        </mxCell>
        <mxCell id="hx7UnCRA5eKLAJgafwng-48" style="edgeStyle=orthogonalEdgeStyle;rounded=0;orthogonalLoop=1;jettySize=auto;html=1;exitX=1;exitY=0.5;exitDx=0;exitDy=0;entryX=0;entryY=0.5;entryDx=0;entryDy=0;fontSize=18;" edge="1" parent="1" source="hx7UnCRA5eKLAJgafwng-40" target="hx7UnCRA5eKLAJgafwng-45">
          <mxGeometry relative="1" as="geometry" />
        </mxCell>
        <mxCell id="hx7UnCRA5eKLAJgafwng-58" style="edgeStyle=orthogonalEdgeStyle;rounded=0;orthogonalLoop=1;jettySize=auto;html=1;exitX=1;exitY=0.5;exitDx=0;exitDy=0;entryX=0;entryY=0.5;entryDx=0;entryDy=0;fontSize=18;" edge="1" parent="1" source="hx7UnCRA5eKLAJgafwng-49" target="hx7UnCRA5eKLAJgafwng-2">
          <mxGeometry relative="1" as="geometry" />
        </mxCell>
        <mxCell id="hx7UnCRA5eKLAJgafwng-49" value="Nginx&lt;br&gt;&lt;br&gt;&lt;br&gt;&lt;br&gt;&lt;br&gt;&lt;br&gt;" style="rounded=0;whiteSpace=wrap;html=1;fontSize=18;" vertex="1" parent="1">
          <mxGeometry x="104" y="330" width="350" height="140" as="geometry" />
        </mxCell>
        <mxCell id="hx7UnCRA5eKLAJgafwng-39" value="&lt;font style=&quot;font-size: 18px&quot;&gt;drawio.charleshe.top&lt;/font&gt;" style="rounded=0;whiteSpace=wrap;html=1;fontSize=24;" vertex="1" parent="1">
          <mxGeometry x="217" y="361.5" width="220" height="35" as="geometry" />
        </mxCell>
        <mxCell id="hx7UnCRA5eKLAJgafwng-40" value="Port" style="rounded=0;whiteSpace=wrap;html=1;fontSize=24;" vertex="1" parent="1">
          <mxGeometry x="120" y="361.5" width="60" height="87" as="geometry" />
        </mxCell>
        <mxCell id="hx7UnCRA5eKLAJgafwng-45" value="&lt;font style=&quot;font-size: 18px&quot;&gt;blog.charleshe.top&lt;/font&gt;" style="rounded=0;whiteSpace=wrap;html=1;fontSize=24;" vertex="1" parent="1">
          <mxGeometry x="217" y="414" width="220" height="35" as="geometry" />
        </mxCell>
        <mxCell id="hx7UnCRA5eKLAJgafwng-53" style="edgeStyle=orthogonalEdgeStyle;rounded=0;orthogonalLoop=1;jettySize=auto;html=1;exitX=1;exitY=0.5;exitDx=0;exitDy=0;entryX=0;entryY=0.5;entryDx=0;entryDy=0;fontSize=18;" edge="1" parent="1" source="hx7UnCRA5eKLAJgafwng-50" target="hx7UnCRA5eKLAJgafwng-51">
          <mxGeometry relative="1" as="geometry" />
        </mxCell>
        <mxCell id="hx7UnCRA5eKLAJgafwng-50" value="ssh" style="rounded=0;whiteSpace=wrap;html=1;fontSize=24;" vertex="1" parent="1">
          <mxGeometry x="-110" y="200" width="90" height="70" as="geometry" />
        </mxCell>
        <mxCell id="hx7UnCRA5eKLAJgafwng-54" style="edgeStyle=orthogonalEdgeStyle;rounded=0;orthogonalLoop=1;jettySize=auto;html=1;exitX=1;exitY=0.5;exitDx=0;exitDy=0;entryX=0;entryY=0.5;entryDx=0;entryDy=0;fontSize=18;" edge="1" parent="1" source="hx7UnCRA5eKLAJgafwng-51" target="hx7UnCRA5eKLAJgafwng-52">
          <mxGeometry relative="1" as="geometry" />
        </mxCell>
        <mxCell id="hx7UnCRA5eKLAJgafwng-51" value="&lt;font style=&quot;font-size: 24px&quot;&gt;frps&lt;/font&gt;" style="rounded=0;whiteSpace=wrap;html=1;" vertex="1" parent="1">
          <mxGeometry x="230" y="196.25" width="100" height="77.5" as="geometry" />
        </mxCell>
        <mxCell id="hx7UnCRA5eKLAJgafwng-57" style="edgeStyle=orthogonalEdgeStyle;rounded=0;orthogonalLoop=1;jettySize=auto;html=1;exitX=0.5;exitY=0;exitDx=0;exitDy=0;entryX=0.144;entryY=-0.081;entryDx=0;entryDy=0;fontSize=18;entryPerimeter=0;" edge="1" parent="1" source="hx7UnCRA5eKLAJgafwng-52" target="BerOtadObNwDrbP9cR0y-18">
          <mxGeometry relative="1" as="geometry">
            <Array as="points">
              <mxPoint x="640" y="170" />
              <mxPoint x="807" y="170" />
            </Array>
          </mxGeometry>
        </mxCell>
        <mxCell id="hx7UnCRA5eKLAJgafwng-52" value="&lt;font style=&quot;font-size: 24px&quot;&gt;frpc&lt;br&gt;&lt;/font&gt;" style="rounded=0;whiteSpace=wrap;html=1;" vertex="1" parent="1">
          <mxGeometry x="590" y="196.25" width="100" height="77.5" as="geometry" />
        </mxCell>
      </root>
    </mxGraphModel>
  </diagram>
</mxfile>
